<?xml version="1.0" standalone="no"?>
<!DOCTYPE svg PUBLIC "-//W3C//DTD SVG 20010904//EN"
 "http://www.w3.org/TR/2001/REC-SVG-20010904/DTD/svg10.dtd">
<svg version="1.0" xmlns="http://www.w3.org/2000/svg"
 width="1080.000000pt" height="1266.000000pt" viewBox="0 0 1080.000000 1266.000000"
 preserveAspectRatio="xMidYMid meet">

<g transform="translate(0.000000,1266.000000) scale(0.100000,-0.100000)"
fill="#000000" stroke="none">
<path d="M3500 11639 c-820 -92 -1504 -690 -1705 -1489 -147 -585 -17 -1210
354 -1695 64 -85 232 -256 321 -328 485 -392 1123 -532 1732 -381 53 13 99 24
102 24 3 0 6 -223 6 -495 l0 -495 160 0 160 0 0 745 c0 410 -2 745 -5 745 -2
0 -28 -14 -56 -31 -168 -98 -385 -180 -574 -215 -149 -28 -431 -26 -581 4
-156 31 -279 73 -429 147 -499 248 -837 723 -910 1282 -103 782 373 1542 1122
1793 170 56 261 71 473 77 169 5 212 2 319 -16 302 -51 598 -194 840 -403 25
-21 48 -37 52 -36 4 2 49 57 100 122 l93 119 -45 40 c-248 223 -597 395 -934
461 -179 35 -416 45 -595 25z"/>
<path d="M3492 11005 c-538 -103 -951 -514 -1069 -1065 -14 -65 -18 -129 -18
-275 0 -203 6 -242 57 -410 103 -341 353 -639 670 -802 166 -86 400 -143 583
-143 182 0 426 60 602 148 81 41 237 142 286 186 l27 25 0 336 0 335 -490 0
-490 0 0 -155 0 -155 335 0 335 0 0 -105 0 -105 -56 -36 c-83 -53 -189 -101
-279 -126 -68 -18 -107 -22 -260 -22 -205 -1 -268 12 -423 84 -505 237 -724
884 -478 1406 127 267 334 453 602 537 348 110 709 24 1035 -244 l46 -38 96
125 97 126 -53 45 c-173 148 -396 260 -627 315 -112 26 -419 34 -528 13z"/>
<path d="M3650 9810 l0 -160 708 0 707 -1 553 -589 c304 -325 557 -590 562
-590 4 0 256 266 560 590 l552 590 214 0 214 0 0 -1435 0 -1435 165 0 165 0 0
1595 0 1595 -452 0 -453 -1 -480 -514 c-264 -283 -482 -515 -485 -515 -3 0
-223 232 -488 515 l-483 515 -780 0 -779 0 0 -160z"/>
<path d="M4970 8022 l0 -1242 165 0 165 0 2 826 3 826 400 -426 400 -425 71
-1 71 0 404 429 404 430 3 -830 2 -829 160 0 160 0 0 1242 0 1241 -52 -57
c-265 -287 -1144 -1224 -1149 -1223 -3 1 -261 274 -574 607 -312 333 -582 621
-601 640 l-34 35 0 -1243z"/>
<path d="M3450 7090 c0 -18 7 -20 60 -20 l60 0 0 -145 0 -145 25 0 25 0 0 145
0 145 60 0 c53 0 60 2 60 20 0 19 -7 20 -145 20 -138 0 -145 -1 -145 -20z"/>
<path d="M3780 6945 l0 -165 25 0 25 0 0 133 1 132 54 -129 c29 -70 56 -131
60 -134 10 -10 21 10 65 118 71 175 69 175 70 18 0 -131 1 -138 20 -138 19 0
20 7 20 165 l0 165 -33 0 c-33 0 -34 -1 -82 -120 -27 -66 -51 -120 -54 -120
-4 0 -28 54 -55 120 l-48 120 -34 0 -34 0 0 -165z"/>
<path d="M1817 5980 c-258 -32 -478 -180 -581 -391 -61 -127 -79 -206 -79
-354 0 -90 6 -140 22 -200 89 -337 371 -545 741 -545 225 0 403 68 558 213
l52 50 0 283 0 284 -355 0 -355 0 0 -125 0 -125 205 0 206 0 -3 -102 -3 -102
-40 -27 c-188 -124 -451 -94 -597 69 -164 183 -156 502 18 675 91 92 205 133
345 125 100 -6 192 -49 264 -124 l51 -52 122 66 c67 37 122 73 122 80 0 7 -39
53 -87 101 -65 66 -107 98 -160 125 -133 66 -296 94 -446 76z"/>
<path d="M4496 5964 c-220 -40 -405 -179 -500 -376 -64 -135 -80 -207 -79
-363 1 -231 62 -385 212 -535 148 -148 291 -204 516 -204 152 0 218 15 345 77
120 58 239 177 298 297 63 127 84 220 84 370 0 150 -21 245 -83 367 -140 279
-460 427 -793 367z m290 -284 c161 -56 267 -213 281 -414 21 -315 -202 -547
-486 -506 -215 30 -361 221 -361 470 0 216 110 392 283 451 73 26 210 25 283
-1z"/>
<path d="M7480 5965 c-285 -57 -494 -247 -572 -521 -18 -64 -22 -103 -22 -209
0 -156 17 -234 76 -355 34 -69 60 -103 133 -176 78 -78 104 -98 185 -137 112
-53 200 -76 318 -84 224 -14 440 62 597 209 l65 60 0 284 0 284 -355 0 -355 0
0 -125 0 -125 205 0 205 0 0 -103 0 -103 -54 -33 c-153 -92 -349 -96 -493 -9
-136 81 -213 230 -213 407 1 148 35 242 125 340 165 178 443 184 613 14 29
-29 55 -53 57 -53 10 0 245 133 245 139 0 14 -97 123 -145 163 -66 55 -192
113 -287 132 -91 19 -237 19 -328 1z"/>
<path d="M2740 5210 l0 -730 505 0 505 0 0 125 0 125 -360 0 -360 0 0 170 0
170 335 0 335 0 0 125 0 125 -335 0 -335 0 0 185 0 185 360 0 360 0 0 125 0
125 -505 0 -505 0 0 -730z"/>
<path d="M5580 5210 l0 -730 150 0 150 0 2 253 3 252 110 0 110 0 140 -252
139 -253 183 0 c181 0 184 0 173 20 -6 11 -78 136 -161 277 -82 141 -148 257
-147 257 2 1 38 19 80 39 152 74 228 208 228 402 0 185 -86 337 -232 411 -100
51 -134 54 -545 54 l-383 0 0 -730z m725 461 c77 -36 115 -95 115 -181 0 -86
-38 -145 -115 -181 -34 -16 -66 -19 -232 -19 l-193 0 0 200 0 200 193 0 c166
0 198 -3 232 -19z"/>
<path d="M8510 5210 l0 -730 500 0 500 0 0 125 0 125 -355 0 -355 0 0 170 0
170 335 0 335 0 0 125 0 125 -335 0 -335 0 0 185 0 185 355 0 355 0 0 125 0
125 -500 0 -500 0 0 -730z"/>
<path d="M5258 4100 c-199 -50 -332 -164 -388 -331 -19 -54 -21 -80 -18 -166
4 -89 9 -110 37 -167 72 -146 206 -221 537 -301 273 -65 344 -110 344 -217 0
-62 -35 -109 -107 -145 -55 -26 -65 -28 -183 -27 -108 0 -136 4 -206 27 -82
27 -176 82 -248 144 -22 18 -43 32 -48 31 -4 -2 -48 -60 -97 -130 l-91 -128
67 -55 c309 -254 870 -272 1117 -35 106 102 152 225 144 386 -4 76 -11 104
-36 158 -39 83 -106 150 -200 199 -95 50 -126 61 -347 116 -211 54 -273 78
-311 124 -23 27 -26 38 -22 84 8 90 77 141 202 150 140 11 321 -46 442 -137
l51 -38 91 123 c51 67 92 126 92 131 -1 17 -125 103 -200 138 -125 59 -214 78
-390 82 -129 3 -168 0 -232 -16z"/>
<path d="M6901 4110 c-291 -61 -511 -257 -600 -535 -116 -361 -7 -768 261
-970 73 -56 198 -118 283 -141 92 -25 294 -30 395 -10 388 79 640 404 640 826
0 335 -165 622 -433 754 -50 24 -119 52 -152 61 -70 20 -326 29 -394 15z m294
-312 c159 -40 291 -190 330 -373 70 -331 -105 -635 -387 -674 -282 -39 -503
147 -537 451 -45 402 238 686 594 596z"/>
<path d="M1150 3245 l0 -815 165 0 165 0 0 582 c0 345 4 578 9 572 5 -5 99
-236 209 -514 110 -278 212 -535 227 -572 l27 -68 77 0 76 0 230 582 230 582
3 -582 2 -582 170 0 170 0 0 815 0 815 -247 -2 -246 -3 -193 -499 c-106 -274
-195 -500 -196 -502 -2 -2 -91 224 -198 501 l-195 505 -242 0 -243 0 0 -815z"/>
<path d="M3619 4033 c-15 -41 -596 -1565 -604 -1585 -7 -17 5 -18 172 -18
l179 0 51 143 50 142 378 0 378 0 51 -142 51 -143 177 0 178 0 -20 53 c-11 28
-150 394 -308 812 l-289 760 -217 3 -216 2 -11 -27z m362 -691 l127 -357 -261
-3 c-143 -1 -261 -1 -263 1 -2 2 53 160 122 353 68 192 127 355 130 363 2 8 8
11 12 7 4 -4 64 -168 133 -364z"/>
<path d="M8050 3245 l0 -815 165 0 165 0 2 546 3 546 373 -546 373 -546 190 0
189 0 0 815 0 815 -165 0 -165 0 0 -520 c0 -286 -3 -520 -7 -520 -5 1 -168
234 -363 518 l-355 517 -203 3 -202 2 0 -815z"/>
<path d="M6700 2049 c-78 -13 -173 -62 -214 -111 -89 -103 -88 -269 1 -360 47
-48 119 -79 283 -123 178 -47 210 -68 210 -134 0 -137 -273 -144 -442 -10 -21
18 -43 28 -47 23 -4 -5 -29 -40 -56 -77 l-48 -68 28 -29 c39 -40 150 -97 226
-115 76 -18 217 -20 291 -4 69 15 139 51 181 92 93 94 110 264 36 366 -53 73
-123 105 -379 172 -124 33 -168 85 -124 148 53 76 254 63 368 -24 l45 -34 55
74 c31 41 56 77 56 81 0 22 -124 92 -207 117 -68 20 -194 28 -263 16z"/>
<path d="M1150 1695 c0 -202 4 -344 11 -377 42 -197 193 -301 439 -301 212 -1
348 71 419 222 l26 56 3 363 3 362 -106 0 -105 0 0 -294 c0 -161 -5 -317 -10
-347 -21 -108 -89 -167 -205 -176 -33 -3 -80 0 -105 7 -57 15 -124 80 -139
135 -7 25 -11 156 -11 358 l0 317 -110 0 -110 0 0 -325z"/>
<path d="M2220 1525 l0 -495 100 0 100 0 0 326 c0 202 4 323 9 319 6 -3 110
-149 232 -325 l222 -320 98 0 99 0 0 495 0 495 -100 0 -100 0 0 -315 c0 -173
-3 -315 -7 -315 -5 1 -107 142 -227 315 l-220 315 -103 0 -103 0 0 -495z"/>
<path d="M3250 1525 l0 -495 100 0 100 0 0 495 0 495 -100 0 -100 0 0 -495z"/>
<path d="M3550 2018 c0 -2 85 -223 188 -493 l188 -490 131 -3 c117 -2 131 -1
138 15 46 117 365 959 365 965 0 5 -52 7 -116 6 l-117 -3 -129 -365 c-71 -201
-133 -369 -137 -373 -4 -4 -68 161 -141 368 l-134 375 -118 0 c-65 0 -118 -1
-118 -2z"/>
<path d="M4647 2013 c-4 -3 -7 -226 -7 -495 l0 -488 350 0 350 0 0 80 0 80
-245 0 -245 0 0 125 0 125 225 0 225 0 0 80 0 80 -225 0 -225 0 0 125 0 125
245 0 245 0 0 85 0 85 -343 0 c-189 0 -347 -3 -350 -7z"/>
<path d="M5510 1526 l0 -496 100 0 100 0 0 165 0 166 77 -3 77 -3 94 -162 94
-163 119 0 c65 0 119 3 119 6 0 3 -47 87 -105 186 -58 99 -104 181 -103 182 2
1 22 10 46 21 55 24 110 77 136 134 17 37 21 65 21 141 0 84 -3 101 -27 146
-15 28 -48 70 -73 92 -79 69 -104 74 -407 80 l-268 4 0 -496z m504 310 c101
-42 112 -190 18 -248 -33 -21 -52 -23 -179 -26 l-143 -4 0 146 0 146 135 0
c93 0 146 -4 169 -14z"/>
<path d="M7320 1525 l0 -495 100 0 100 0 0 495 0 495 -100 0 -100 0 0 -495z"/>
<path d="M7647 2013 c-4 -3 -7 -51 -7 -105 l0 -98 165 0 165 0 0 -390 0 -390
105 0 105 0 0 390 0 390 145 0 146 0 -3 103 -3 102 -406 3 c-223 1 -408 -1
-412 -5z"/>
<path d="M8530 2014 c0 -3 88 -136 195 -295 l195 -288 0 -201 0 -200 125 0
125 0 0 205 0 205 170 280 c94 155 170 285 170 290 0 6 -50 10 -118 10 l-118
0 -124 -199 c-69 -110 -126 -198 -128 -197 -1 2 -58 90 -126 197 l-123 194
-122 3 c-66 1 -121 0 -121 -4z"/>
<path d="M9618 1416 c-59 -21 -85 -42 -114 -92 -75 -128 6 -293 152 -310 203
-24 315 228 161 363 -58 50 -128 64 -199 39z m138 -35 c107 -49 138 -190 61
-278 -80 -91 -211 -84 -282 16 -62 88 -30 212 67 260 53 26 100 26 154 2z"/>
<path d="M9600 1220 c0 -100 3 -120 15 -120 11 0 15 12 15 45 0 41 2 45 25 45
19 0 32 -11 53 -45 15 -26 34 -45 44 -45 24 0 23 8 -8 54 -21 31 -24 40 -13
47 8 5 17 9 21 9 16 0 25 57 13 87 -15 34 -37 43 -112 43 l-53 0 0 -120z m128
78 c7 -7 12 -21 12 -33 0 -32 -20 -45 -67 -45 l-43 0 0 45 0 45 43 0 c24 0 48
-5 55 -12z"/>
</g>
</svg>
